# xmcd
#
# Track frame offsets:
# 150
# 17296
# 35548
# 56249
# 71753
# 89232
# 110547
# 127655
# 150872
# 166556
# 179887
# 199952
# 218877
#
# Disc length: 3477 seconds
#
# Revision: 1
# Processed by: cddbd v1.5.1PL0 Copyright (c) Steve Scherf et al.
# Submitted via: CedeCatalogueitor 2.6.0.6 http://personales.ya.com/cdcatalogueitor
#
DISCID=b10d930d
DTITLE=Rose Royce - The Collection
DYEAR=1900
DGENRE=
TTITLE0=Cae Wash (live)
TTITLE1=Do Your Dance
TTITLE2=Pop Your Fingers (mix)
TTITLE3=First Come First Serve
TTITLE4=Best Love
TTITLE5=Funkin'  Around
TTITLE6=I'm In Love
TTITLE7=Is It Love You're After (ext)
TTITLE8=Put Your Money Where Your Mouth Is
TTITLE9=You Gotta Believe
TTITLE10=You're A Winner
TTITLE11=You Are My World Girl
TTITLE12=Do Your Dance (12" Inch Mix)
EXTD=
EXTT0=
EXTT1=
EXTT2=
EXTT3=
EXTT4=
EXTT5=
EXTT6=
EXTT7=
EXTT8=
EXTT9=
EXTT10=
EXTT11=
EXTT12=
PLAYORDER=
